<svg xmlns="http://www.w3.org/2000/svg" width="192" height="192" viewBox="0 0 192 192">
  <rect width="192" height="192" rx="32" fill="#0066CC"/>
  <g transform="translate(32,32) scale(5.33)" fill="white">
    <rect x="1" y="1" width="6" height="6" rx="1"/>
    <rect x="3" y="3" width="2" height="2"/>
    <rect x="17" y="1" width="6" height="6" rx="1"/>
    <rect x="19" y="3" width="2" height="2"/>
    <rect x="1" y="17" width="6" height="6" rx="1"/>
    <rect x="3" y="19" width="2" height="2"/>
    <rect x="9" y="1" width="2" height="2"/>
    <rect x="11" y="3" width="2" height="2"/>
    <rect x="9" y="5" width="2" height="2"/>
    <rect x="1" y="9" width="2" height="2"/>
    <rect x="5" y="9" width="2" height="2"/>
    <rect x="9" y="9" width="2" height="2"/>
    <rect x="9" y="13" width="2" height="2"/>
    <rect x="13" y="9" width="2" height="2"/>
    <rect x="13" y="13" width="2" height="2"/>
    <rect x="17" y="9" width="2" height="2"/>
    <rect x="17" y="13" width="2" height="2"/>
    <rect x="21" y="9" width="2" height="2"/>
    <rect x="9" y="17" width="2" height="2"/>
    <rect x="13" y="17" width="2" height="4"/>
    <rect x="17" y="17" width="2" height="2"/>
    <rect x="21" y="17" width="2" height="2"/>
    <rect x="17" y="21" width="6" height="2"/>
  </g>
</svg>
